<svg t="1739528270177" class="icon" viewBox="0 0 1024 1024" version="1.1" xmlns="http://www.w3.org/2000/svg" p-id="5240" width="28" height="39"><path d="M199.111111 241.777778H341.333333a42.666667 42.666667 0 0 0 9.500445-84.252445q26.567111-10.695111 50.403555-15.928889a42.780444 42.780444 0 0 0 1.877334-0.398222q156.842667-41.301333 297.415111 38.456889 140.231111 79.644444 182.101333 233.130667 41.813333 153.372444-38.968889 290.929778-81.009778 137.841778-237.624889 179.086222-156.842667 41.301333-297.415111-38.456889-140.288-79.644444-182.101333-233.130667a42.666667 42.666667 0 1 0-82.375111 22.414222q51.2 187.790222 222.378666 284.899556 170.780444 96.938667 361.244445 46.819556 190.691556-50.232889 289.450667-218.453334 98.986667-168.504889 47.786666-356.522666-51.2-187.790222-222.378666-284.899556-170.382222-96.711111-360.334223-47.047111-44.544 9.784889-94.435555 33.792l7.736889-19.512889A42.666667 42.666667 0 0 0 216.405333 41.016889l-56.888889 142.222222A42.666667 42.666667 0 0 0 199.111111 241.777778zM631.751111 739.555556c-46.307556 0-80.611556-12.686222-102.855111-38.001778-22.300444-25.372444-33.450667-63.431111-33.450667-114.119111V431.445333c0-48.128 11.605333-84.650667 34.702223-109.624889C553.415111 296.96 587.207111 284.444444 631.808 284.444444c46.250667 0 80.554667 12.344889 102.855111 37.091556 22.243556 24.689778 33.393778 61.326222 33.393778 109.909333v155.989334c0 50.289778-11.150222 88.177778-33.393778 113.777777-22.300444 25.6-56.604444 38.343111-102.855111 38.343112z m-299.008-7.054223V384.170667L256 437.873778V347.022222l76.743111-55.580444h86.641778v441.002666H332.8z m299.008-65.820444c19.342222 0 32.483556-6.485333 39.310222-19.512889 6.826667-12.970667 10.24-35.271111 10.24-66.787556V443.619556c0-31.573333-3.413333-53.703111-10.24-66.503112-6.826667-12.743111-19.911111-19.171556-39.310222-19.171555-19.456 0-32.426667 6.428444-39.025778 19.171555-6.656 12.8-9.955556 34.929778-9.955555 66.503112v136.760888c0 31.573333 3.413333 53.816889 10.24 66.787556 6.826667 13.027556 19.740444 19.512889 38.684444 19.512889z" p-id="5241" fill="#ffffff"></path></svg>